<svg width="721" height="183" viewBox="0 0 721 183" fill="none" xmlns="http://www.w3.org/2000/svg">
<g clip-path="url(#clip0)">
<path d="M38.656 0H88.576L74.24 67.072H128.512L142.848 0H192.768L154.112 181.76H104.192L119.296 110.592H65.024L49.92 181.76H0L38.656 0Z" fill="white"/>
<path d="M236.706 121.088L204.45 0H258.466L270.498 78.592L316.834 0H371.106L286.114 121.6L273.314 181.76H223.65L236.706 121.088Z" fill="white"/>
<path d="M421.014 183.296C409.921 183.296 400.363 181.76 392.342 178.688C384.491 175.445 378.091 171.008 373.142 165.376C368.193 159.744 364.523 153.173 362.134 145.664C359.915 137.984 358.806 129.707 358.806 120.832C358.806 112.128 359.83 102.997 361.878 93.44L381.846 0H431.766L411.798 93.44C410.433 100.267 409.75 106.325 409.75 111.616C409.75 119.637 411.286 126.208 414.358 131.328C417.601 136.448 422.977 139.008 430.486 139.008C435.606 139.008 440.214 137.728 444.31 135.168C448.406 132.608 452.075 129.28 455.318 125.184C458.561 120.917 461.206 116.053 463.254 110.592C465.473 105.131 467.265 99.4133 468.63 93.44L488.598 0H538.518L518.55 93.44C515.819 106.069 511.723 117.931 506.262 129.024C500.801 139.947 493.974 149.419 485.782 157.44C477.59 165.461 468.033 171.776 457.11 176.384C446.358 180.992 434.326 183.296 421.014 183.296Z" fill="white"/>
<path d="M566.906 0H605.818L651.898 92.416L671.354 0H721.274L682.618 181.76H643.194L597.114 92.416L578.17 181.76H528.25L566.906 0Z" fill="white"/>
</g>
<defs>
<clipPath id="clip0">
<rect width="721" height="183" fill="white"/>
</clipPath>
</defs>
</svg>
